<svg xmlns="http://www.w3.org/2000/svg" width="20" height="20" viewBox="0 0 20 20">
  <defs>
    <style>
      .cls-1 {
        fill: #fff;
        fill-rule: evenodd;
        opacity: 0.4;
      }
    </style>
  </defs>
  <path id="Чербокс_вкл._copy_3" data-name="Чербокс вкл.  copy 3" class="cls-1" d="M486.146,2482.01h11.708a4.165,4.165,0,0,1,4.16,4.16v11.65a4.167,4.167,0,0,1-4.16,4.17H486.146a4.167,4.167,0,0,1-4.161-4.17v-11.65A4.165,4.165,0,0,1,486.146,2482.01ZM486,2483h12a3,3,0,0,1,3,3v12a3,3,0,0,1-3,3H486a3,3,0,0,1-3-3v-12A3,3,0,0,1,486,2483Zm12.369,5.96-5.93,5.93h0l-1.765,1.76h0l-1.765-1.76h0l-3.07-3.07,1.766-1.77,3.07,3.07,5.93-5.93Z" transform="translate(-482 -2482)"/>
</svg>
